# Blender v2.68 (sub 0) OBJ File: ''
# www.blender.org
mtllib switch.mtl
o 1:1
v -0.022910 0.005436 0.020348
v 0.024715 0.005436 0.020348
v -0.022910 -0.002997 0.020805
v 0.024715 -0.002997 0.020805
v -0.022910 -0.019773 0.018760
v 0.024715 -0.019773 0.018760
v -0.022910 -0.035940 0.013832
v 0.024715 -0.035940 0.013832
v -0.022910 -0.051003 0.006161
v 0.024715 -0.051003 0.006161
v -0.022910 -0.063195 -0.003326
v 0.024715 -0.063195 -0.003326
v -0.022910 0.063805 -0.003326
v 0.024715 0.063805 -0.003326
v -0.022910 0.057443 0.002224
v 0.024715 0.057443 0.002224
v -0.022910 0.042977 0.010962
v 0.024715 0.042977 0.010962
v -0.022910 0.035637 0.013794
v 0.024715 0.035637 0.013794
v -0.022910 0.053823 0.077487
v 0.024715 0.053823 0.077487
v -0.022910 0.024169 0.085946
v 0.024715 0.024169 0.085946
v -0.022910 0.005436 0.020348
v -0.141973 0.254305 -0.019202
v -0.141973 0.254305 -0.003326
v -0.141973 -0.253695 -0.019202
v -0.141973 -0.253695 -0.003326
v 0.143777 -0.253695 -0.019202
v 0.143777 -0.253695 -0.003326
v 0.143777 0.254305 -0.019202
v 0.143777 0.254305 -0.003326
v 0.016777 -0.150507 -0.003326
v 0.016777 -0.150507 -0.001345
v 0.016777 -0.149123 -0.003326
v 0.016777 -0.149123 -0.001345
v 0.016294 -0.146380 -0.003326
v 0.016294 -0.146380 -0.001345
v 0.015342 -0.143776 -0.003326
v 0.015342 -0.143776 -0.001345
v 0.013958 -0.141363 -0.003326
v 0.013958 -0.141363 -0.001345
v 0.012167 -0.139242 -0.003326
v 0.012167 -0.139242 -0.001345
v 0.010046 -0.137451 -0.003326
v 0.010046 -0.137451 -0.001345
v 0.007633 -0.136067 -0.003326
v 0.007633 -0.136067 -0.001345
v 0.005029 -0.135115 -0.003326
v 0.005029 -0.135115 -0.001345
v 0.002286 -0.134632 -0.003326
v 0.002286 -0.134632 -0.001345
v -0.000482 -0.134632 -0.003326
v -0.000482 -0.134632 -0.001345
v -0.003225 -0.135115 -0.003326
v -0.003225 -0.135115 -0.001345
v -0.005829 -0.136067 -0.003326
v -0.005829 -0.136067 -0.001345
v -0.008242 -0.137451 -0.003326
v -0.008242 -0.137451 -0.001345
v -0.010363 -0.139242 -0.003326
v -0.010363 -0.139242 -0.001345
v -0.012154 -0.141363 -0.003326
v -0.012154 -0.141363 -0.001345
v -0.013538 -0.143776 -0.003326
v -0.013538 -0.143776 -0.001345
v -0.014490 -0.146380 -0.003326
v -0.014490 -0.146380 -0.001345
v -0.014973 -0.149123 -0.003326
v -0.014973 -0.149123 -0.001345
v -0.014973 -0.150507 -0.003326
v -0.014973 -0.150507 -0.001345
v -0.014973 -0.151891 -0.003326
v -0.014973 -0.151891 -0.001345
v -0.014490 -0.154635 -0.003326
v -0.014490 -0.154635 -0.001345
v -0.013538 -0.157238 -0.003326
v -0.013538 -0.157238 -0.001345
v -0.012154 -0.159651 -0.003326
v -0.012154 -0.159651 -0.001345
v -0.010363 -0.161772 -0.003326
v -0.010363 -0.161772 -0.001345
v -0.008242 -0.163563 -0.003326
v -0.008242 -0.163563 -0.001345
v -0.005829 -0.164947 -0.003326
v -0.005829 -0.164947 -0.001345
v -0.003225 -0.165899 -0.003326
v -0.003225 -0.165899 -0.001345
v -0.000482 -0.166382 -0.003326
v -0.000482 -0.166382 -0.001345
v 0.002286 -0.166382 -0.003326
v 0.002286 -0.166382 -0.001345
v 0.005029 -0.165899 -0.003326
v 0.005029 -0.165899 -0.001345
v 0.007633 -0.164947 -0.003326
v 0.007633 -0.164947 -0.001345
v 0.010046 -0.163563 -0.003326
v 0.010046 -0.163563 -0.001345
v 0.012167 -0.161772 -0.003326
v 0.012167 -0.161772 -0.001345
v 0.013958 -0.159651 -0.003326
v 0.013958 -0.159651 -0.001345
v 0.015342 -0.157238 -0.003326
v 0.015342 -0.157238 -0.001345
v 0.016294 -0.154635 -0.003326
v 0.016294 -0.154635 -0.001345
v 0.016777 -0.151891 -0.003326
v 0.016777 -0.151891 -0.001345
v 0.016777 0.151118 -0.003326
v 0.016777 0.151118 -0.001345
v 0.016777 0.152502 -0.003326
v 0.016777 0.152502 -0.001345
v 0.016294 0.155245 -0.003326
v 0.016294 0.155245 -0.001345
v 0.015342 0.157849 -0.003326
v 0.015342 0.157849 -0.001345
v 0.013958 0.160262 -0.003326
v 0.013958 0.160262 -0.001345
v 0.012167 0.162383 -0.003326
v 0.012167 0.162383 -0.001345
v 0.010046 0.164174 -0.003326
v 0.010046 0.164174 -0.001345
v 0.007633 0.165558 -0.003326
v 0.007633 0.165558 -0.001345
v 0.005029 0.166510 -0.003326
v 0.005029 0.166510 -0.001345
v 0.002286 0.166993 -0.003326
v 0.002286 0.166993 -0.001345
v -0.000482 0.166993 -0.003326
v -0.000482 0.166993 -0.001345
v -0.003225 0.166510 -0.003326
v -0.003225 0.166510 -0.001345
v -0.005829 0.165558 -0.003326
v -0.005829 0.165558 -0.001345
v -0.008242 0.164174 -0.003326
v -0.008242 0.164174 -0.001345
v -0.010363 0.162383 -0.003326
v -0.010363 0.162383 -0.001345
v -0.012154 0.160262 -0.003326
v -0.012154 0.160262 -0.001345
v -0.013538 0.157849 -0.003326
v -0.013538 0.157849 -0.001345
v -0.014490 0.155245 -0.003326
v -0.014490 0.155245 -0.001345
v -0.014973 0.152502 -0.003326
v -0.014973 0.152502 -0.001345
v -0.014973 0.151118 -0.003326
v -0.014973 0.151118 -0.001345
v -0.014973 0.149734 -0.003326
v -0.014973 0.149734 -0.001345
v -0.014490 0.146990 -0.003326
v -0.014490 0.146990 -0.001345
v -0.013538 0.144387 -0.003326
v -0.013538 0.144387 -0.001345
v -0.012154 0.141974 -0.003326
v -0.012154 0.141974 -0.001345
v -0.010363 0.139853 -0.003326
v -0.010363 0.139853 -0.001345
v -0.008242 0.138062 -0.003326
v -0.008242 0.138062 -0.001345
v -0.005829 0.136678 -0.003326
v -0.005829 0.136678 -0.001345
v -0.003225 0.135726 -0.003326
v -0.003225 0.135726 -0.001345
v -0.000482 0.135243 -0.003326
v -0.000482 0.135243 -0.001345
v 0.002286 0.135243 -0.003326
v 0.002286 0.135243 -0.001345
v 0.005029 0.135726 -0.003326
v 0.005029 0.135726 -0.001345
v 0.007633 0.136678 -0.003326
v 0.007633 0.136678 -0.001345
v 0.010046 0.138062 -0.003326
v 0.010046 0.138062 -0.001345
v 0.012167 0.139853 -0.003326
v 0.012167 0.139853 -0.001345
v 0.013958 0.141974 -0.003326
v 0.013958 0.141974 -0.001345
v 0.015342 0.144387 -0.003326
v 0.015342 0.144387 -0.001345
v 0.016294 0.146990 -0.003326
v 0.016294 0.146990 -0.001345
v 0.016777 0.149734 -0.003326
v 0.016777 0.149734 -0.001345
v -0.173723 0.286055 -0.019202
v -0.173723 0.286055 -0.014236
v -0.173723 -0.285445 -0.019202
v -0.173723 -0.285445 -0.014236
v -0.141973 -0.253695 -0.008292
v -0.141973 -0.253695 -0.003326
v -0.141973 0.254305 -0.008292
v -0.141973 0.254305 -0.003326
v 0.175527 0.286055 -0.019202
v 0.175527 0.286055 -0.014236
v -0.173723 0.286055 -0.019202
v -0.173723 0.286055 -0.014236
v -0.141973 0.254305 -0.008292
v -0.141973 0.254305 -0.003326
v 0.143777 0.254305 -0.008292
v 0.143777 0.254305 -0.003326
v 0.175527 0.286055 -0.019202
v 0.175527 0.286055 -0.014236
v 0.143777 0.254305 -0.008292
v 0.143777 0.254305 -0.003326
v 0.143777 -0.253695 -0.008292
v 0.143777 -0.253695 -0.003326
v 0.175527 -0.285445 -0.019202
v 0.175527 -0.285445 -0.014236
v -0.173723 -0.285445 -0.019202
v -0.173723 -0.285445 -0.014236
v 0.175527 -0.285445 -0.019202
v 0.175527 -0.285445 -0.014236
v 0.143777 -0.253695 -0.008292
v 0.143777 -0.253695 -0.003326
v -0.141973 -0.253695 -0.008292
v -0.141973 -0.253695 -0.003326
v -0.173723 -0.285445 0.085946
v 0.175527 -0.285445 0.085946
v -0.173723 0.286055 0.085946
vn 0.000000 0.054140 0.998533
vn 0.000000 -0.120987 0.992654
vn 0.000000 -0.291560 0.956553
vn 0.000000 -0.453827 0.891090
vn 0.000000 -0.614126 0.789208
vn -0.000000 -0.000000 -1.000000
vn 0.000000 0.657347 0.753588
vn 0.000000 0.517050 0.855955
vn 0.000000 0.359964 0.932966
vn 0.000000 0.961570 -0.274559
vn 0.000000 0.274296 0.961645
vn 0.000000 -0.961562 0.274588
vn -1.000000 0.000000 0.000000
vn 1.000000 0.000000 0.000000
vn -0.000000 -1.000000 -0.000000
vn -0.000000 1.000000 0.000000
vn 0.000000 -0.000000 1.000000
vn 0.707107 -0.707107 0.000000
vn 0.707107 0.707106 0.000000
vn 0.707107 0.707107 0.000000
vn 0.324964 0.000000 -0.945726
vn -0.324964 0.000000 0.945727
vn -0.324964 0.000000 0.945726
vn -0.707107 -0.707106 -0.000000
vn 0.000000 -0.324964 -0.945727
vn -0.000000 0.324964 0.945727
vn -0.707107 0.707107 0.000000
vn -0.707106 -0.707107 -0.000000
vn -0.707107 -0.707107 0.000000
vn -0.324964 0.000000 -0.945727
vn 0.324964 -0.000000 0.945727
vn 0.707106 0.707107 0.000000
vn 0.000000 0.324964 -0.945726
vn 0.000000 -0.324964 0.945726
vn 0.984875 0.173269 0.000000
vn 0.939123 0.343582 0.000000
vn 0.867400 0.497612 0.000000
vn 0.764081 0.645120 0.000000
vn 0.645122 0.764080 0.000000
vn 0.497614 0.867399 0.000000
vn 0.343579 0.939124 0.000000
vn 0.173267 0.984875 0.000000
vn -0.173267 0.984875 0.000000
vn -0.343579 0.939124 0.000000
vn -0.497614 0.867399 0.000000
vn -0.645122 0.764080 0.000000
vn -0.764081 0.645120 0.000000
vn -0.867400 0.497612 0.000000
vn -0.939123 0.343582 0.000000
vn -0.984875 0.173269 0.000000
vn -0.984874 -0.173270 -0.000000
vn -0.939123 -0.343580 -0.000000
vn -0.867398 -0.497615 -0.000000
vn -0.764081 -0.645120 -0.000000
vn -0.645125 -0.764077 -0.000000
vn -0.497606 -0.867403 -0.000000
vn -0.343589 -0.939120 -0.000000
vn -0.173262 -0.984876 -0.000000
vn 0.173262 -0.984876 0.000000
vn 0.343589 -0.939120 0.000000
vn 0.497606 -0.867403 0.000000
vn 0.645125 -0.764077 0.000000
vn 0.764081 -0.645120 0.000000
vn 0.867398 -0.497615 0.000000
vn 0.939123 -0.343580 0.000000
vn 0.984874 -0.173270 0.000000
vn 0.939122 0.343583 0.000000
vn 0.867402 0.497608 0.000000
vn 0.764079 0.645123 0.000000
vn 0.497610 0.867401 0.000000
vn 0.343584 0.939122 0.000000
vn 0.173257 0.984877 0.000000
vn -0.173257 0.984877 0.000000
vn -0.343584 0.939122 0.000000
vn -0.497610 0.867401 0.000000
vn -0.764079 0.645123 0.000000
vn -0.867402 0.497608 0.000000
vn -0.939122 0.343583 0.000000
vn -0.984875 -0.173267 -0.000000
vn -0.939123 -0.343582 -0.000000
vn -0.867397 -0.497617 -0.000000
vn -0.764083 -0.645118 -0.000000
vn -0.645116 -0.764085 -0.000000
vn -0.497618 -0.867396 -0.000000
vn -0.343574 -0.939125 -0.000000
vn -0.173272 -0.984874 -0.000000
vn 0.173272 -0.984874 0.000000
vn 0.343574 -0.939125 0.000000
vn 0.497618 -0.867396 0.000000
vn 0.645116 -0.764085 0.000000
vn 0.764083 -0.645118 0.000000
vn 0.867397 -0.497617 0.000000
vn 0.939123 -0.343582 0.000000
vn 0.984875 -0.173267 0.000000
g 1:1_1:1_Surface-Whitewas
usemtl Surface-Whitewas
s off
f 1//1 3//1 4//1
f 1//1 4//1 2//1
f 3//2 5//2 6//2
f 3//2 6//2 4//2
f 5//3 7//3 8//3
f 5//3 8//3 6//3
f 7//4 9//4 10//4
f 7//4 10//4 8//4
f 9//5 11//5 12//5
f 9//5 12//5 10//5
f 11//6 13//6 14//6
f 11//6 14//6 12//6
f 13//7 15//7 16//7
f 13//7 16//7 14//7
f 15//8 17//8 18//8
f 15//8 18//8 16//8
f 17//9 19//9 20//9
f 17//9 20//9 18//9
f 19//10 21//10 22//10
f 19//10 22//10 20//10
f 21//11 23//11 24//11
f 21//11 24//11 22//11
f 23//12 1//12 2//12
f 23//12 2//12 24//12
f 17//13 15//13 13//13
f 19//13 17//13 13//13
f 23//13 21//13 19//13
f 1//13 23//13 19//13
f 1//13 19//13 13//13
f 3//13 1//13 13//13
f 5//13 3//13 13//13
f 7//13 5//13 13//13
f 9//13 7//13 13//13
f 11//13 9//13 13//13
f 14//14 16//14 18//14
f 14//14 18//14 20//14
f 20//14 22//14 24//14
f 20//14 24//14 2//14
f 14//14 20//14 2//14
f 14//14 2//14 4//14
f 14//14 4//14 6//14
f 14//14 6//14 8//14
f 14//14 8//14 10//14
f 12//14 14//14 10//14
g 1:1_1:1_Surface-Plastic
usemtl Surface-Plastic
f 26//13 28//13 29//13
f 26//13 29//13 27//13
f 28//15 30//15 31//15
f 28//15 31//15 29//15
f 30//14 32//14 33//14
f 30//14 33//14 31//14
f 32//16 26//16 27//16
f 32//16 27//16 33//16
f 26//6 32//6 30//6
f 26//6 30//6 28//6
f 27//17 29//17 31//17
f 27//17 31//17 33//17
f 186//13 188//13 189//13
f 186//13 189//13 187//13
f 188//18 190//18 191//18
f 188//18 191//18 189//18
f 190//14 192//14 193//14
f 190//14 193//14 191//14
f 192//19 186//19 187//19
f 192//20 187//20 193//20
f 186//21 192//21 190//21
f 186//21 190//21 188//21
f 187//22 189//22 191//22
f 187//23 191//23 193//23
f 194//16 196//16 197//16
f 194//16 197//16 195//16
f 196//24 198//24 199//24
f 196//24 199//24 197//24
f 198//15 200//15 201//15
f 198//15 201//15 199//15
f 200//18 194//18 195//18
f 200//18 195//18 201//18
f 194//25 200//25 198//25
f 194//25 198//25 196//25
f 195//26 197//26 199//26
f 195//26 199//26 201//26
f 202//27 204//27 205//27
f 202//27 205//27 203//27
f 204//13 206//13 207//13
f 204//13 207//13 205//13
f 206//28 208//28 209//28
f 206//29 209//29 207//29
f 208//14 202//14 203//14
f 208//14 203//14 209//14
f 202//30 208//30 206//30
f 202//30 206//30 204//30
f 203//31 205//31 207//31
f 203//31 207//31 209//31
f 210//15 212//15 213//15
f 210//15 213//15 211//15
f 212//32 214//32 215//32
f 212//32 215//32 213//32
f 214//16 216//16 217//16
f 214//16 217//16 215//16
f 216//27 210//27 211//27
f 216//27 211//27 217//27
f 210//33 216//33 214//33
f 210//33 214//33 212//33
f 211//34 213//34 215//34
f 211//34 215//34 217//34
g 1:1_1:1_C01
usemtl C01
f 34//14 36//14 37//14
f 34//14 37//14 35//14
f 36//35 38//35 39//35
f 36//35 39//35 37//35
f 38//36 40//36 41//36
f 38//36 41//36 39//36
f 40//37 42//37 43//37
f 40//37 43//37 41//37
f 42//38 44//38 45//38
f 42//38 45//38 43//38
f 44//39 46//39 47//39
f 44//39 47//39 45//39
f 46//40 48//40 49//40
f 46//40 49//40 47//40
f 48//41 50//41 51//41
f 48//41 51//41 49//41
f 50//42 52//42 53//42
f 50//42 53//42 51//42
f 52//16 54//16 55//16
f 52//16 55//16 53//16
f 54//43 56//43 57//43
f 54//43 57//43 55//43
f 56//44 58//44 59//44
f 56//44 59//44 57//44
f 58//45 60//45 61//45
f 58//45 61//45 59//45
f 60//46 62//46 63//46
f 60//46 63//46 61//46
f 62//47 64//47 65//47
f 62//47 65//47 63//47
f 64//48 66//48 67//48
f 64//48 67//48 65//48
f 66//49 68//49 69//49
f 66//49 69//49 67//49
f 68//50 70//50 71//50
f 68//50 71//50 69//50
f 70//13 72//13 73//13
f 70//13 73//13 71//13
f 72//13 74//13 75//13
f 72//13 75//13 73//13
f 74//51 76//51 77//51
f 74//51 77//51 75//51
f 76//52 78//52 79//52
f 76//52 79//52 77//52
f 78//53 80//53 81//53
f 78//53 81//53 79//53
f 80//54 82//54 83//54
f 80//54 83//54 81//54
f 82//55 84//55 85//55
f 82//55 85//55 83//55
f 84//56 86//56 87//56
f 84//56 87//56 85//56
f 86//57 88//57 89//57
f 86//57 89//57 87//57
f 88//58 90//58 91//58
f 88//58 91//58 89//58
f 90//15 92//15 93//15
f 90//15 93//15 91//15
f 92//59 94//59 95//59
f 92//59 95//59 93//59
f 94//60 96//60 97//60
f 94//60 97//60 95//60
f 96//61 98//61 99//61
f 96//61 99//61 97//61
f 98//62 100//62 101//62
f 98//62 101//62 99//62
f 100//63 102//63 103//63
f 100//63 103//63 101//63
f 102//64 104//64 105//64
f 102//64 105//64 103//64
f 104//65 106//65 107//65
f 104//65 107//65 105//65
f 106//66 108//66 109//66
f 106//66 109//66 107//66
f 108//14 34//14 35//14
f 108//14 35//14 109//14
f 34//6 108//6 106//6
f 34//6 106//6 104//6
f 34//6 104//6 102//6
f 34//6 102//6 100//6
f 34//6 100//6 98//6
f 34//6 98//6 96//6
f 34//6 96//6 94//6
f 34//6 94//6 92//6
f 34//6 92//6 90//6
f 34//6 90//6 88//6
f 34//6 88//6 86//6
f 34//6 86//6 84//6
f 34//6 84//6 82//6
f 34//6 82//6 80//6
f 34//6 80//6 78//6
f 34//6 78//6 76//6
f 34//6 76//6 74//6
f 34//6 74//6 72//6
f 34//6 72//6 70//6
f 34//6 70//6 68//6
f 34//6 68//6 66//6
f 34//6 66//6 64//6
f 34//6 64//6 62//6
f 34//6 62//6 60//6
f 34//6 60//6 58//6
f 34//6 58//6 56//6
f 34//6 56//6 54//6
f 34//6 54//6 52//6
f 34//6 52//6 50//6
f 34//6 50//6 48//6
f 34//6 48//6 46//6
f 34//6 46//6 44//6
f 34//6 44//6 42//6
f 34//6 42//6 40//6
f 34//6 40//6 38//6
f 34//6 38//6 36//6
f 35//17 37//17 39//17
f 35//17 39//17 41//17
f 35//17 41//17 43//17
f 35//17 43//17 45//17
f 35//17 45//17 47//17
f 35//17 47//17 49//17
f 35//17 49//17 51//17
f 35//17 51//17 53//17
f 35//17 53//17 55//17
f 35//17 55//17 57//17
f 35//17 57//17 59//17
f 35//17 59//17 61//17
f 35//17 61//17 63//17
f 35//17 63//17 65//17
f 35//17 65//17 67//17
f 35//17 67//17 69//17
f 35//17 69//17 71//17
f 35//17 71//17 73//17
f 35//17 73//17 75//17
f 35//17 75//17 77//17
f 35//17 77//17 79//17
f 35//17 79//17 81//17
f 35//17 81//17 83//17
f 35//17 83//17 85//17
f 35//17 85//17 87//17
f 35//17 87//17 89//17
f 35//17 89//17 91//17
f 35//17 91//17 93//17
f 35//17 93//17 95//17
f 35//17 95//17 97//17
f 35//17 97//17 99//17
f 35//17 99//17 101//17
f 35//17 101//17 103//17
f 35//17 103//17 105//17
f 35//17 105//17 107//17
f 35//17 107//17 109//17
f 110//14 112//14 113//14
f 110//14 113//14 111//14
f 112//35 114//35 115//35
f 112//35 115//35 113//35
f 114//67 116//67 117//67
f 114//67 117//67 115//67
f 116//68 118//68 119//68
f 116//68 119//68 117//68
f 118//69 120//69 121//69
f 118//69 121//69 119//69
f 120//39 122//39 123//39
f 120//39 123//39 121//39
f 122//70 124//70 125//70
f 122//70 125//70 123//70
f 124//71 126//71 127//71
f 124//71 127//71 125//71
f 126//72 128//72 129//72
f 126//72 129//72 127//72
f 128//16 130//16 131//16
f 128//16 131//16 129//16
f 130//73 132//73 133//73
f 130//73 133//73 131//73
f 132//74 134//74 135//74
f 132//74 135//74 133//74
f 134//75 136//75 137//75
f 134//75 137//75 135//75
f 136//46 138//46 139//46
f 136//46 139//46 137//46
f 138//76 140//76 141//76
f 138//76 141//76 139//76
f 140//77 142//77 143//77
f 140//77 143//77 141//77
f 142//78 144//78 145//78
f 142//78 145//78 143//78
f 144//50 146//50 147//50
f 144//50 147//50 145//50
f 146//13 148//13 149//13
f 146//13 149//13 147//13
f 148//13 150//13 151//13
f 148//13 151//13 149//13
f 150//79 152//79 153//79
f 150//79 153//79 151//79
f 152//80 154//80 155//80
f 152//80 155//80 153//80
f 154//81 156//81 157//81
f 154//81 157//81 155//81
f 156//82 158//82 159//82
f 156//82 159//82 157//82
f 158//83 160//83 161//83
f 158//83 161//83 159//83
f 160//84 162//84 163//84
f 160//84 163//84 161//84
f 162//85 164//85 165//85
f 162//85 165//85 163//85
f 164//86 166//86 167//86
f 164//86 167//86 165//86
f 166//15 168//15 169//15
f 166//15 169//15 167//15
f 168//87 170//87 171//87
f 168//87 171//87 169//87
f 170//88 172//88 173//88
f 170//88 173//88 171//88
f 172//89 174//89 175//89
f 172//89 175//89 173//89
f 174//90 176//90 177//90
f 174//90 177//90 175//90
f 176//91 178//91 179//91
f 176//91 179//91 177//91
f 178//92 180//92 181//92
f 178//92 181//92 179//92
f 180//93 182//93 183//93
f 180//93 183//93 181//93
f 182//94 184//94 185//94
f 182//94 185//94 183//94
f 184//14 110//14 111//14
f 184//14 111//14 185//14
f 110//6 184//6 182//6
f 110//6 182//6 180//6
f 110//6 180//6 178//6
f 110//6 178//6 176//6
f 110//6 176//6 174//6
f 110//6 174//6 172//6
f 110//6 172//6 170//6
f 110//6 170//6 168//6
f 110//6 168//6 166//6
f 110//6 166//6 164//6
f 110//6 164//6 162//6
f 110//6 162//6 160//6
f 110//6 160//6 158//6
f 110//6 158//6 156//6
f 110//6 156//6 154//6
f 110//6 154//6 152//6
f 110//6 152//6 150//6
f 110//6 150//6 148//6
f 110//6 148//6 146//6
f 110//6 146//6 144//6
f 110//6 144//6 142//6
f 110//6 142//6 140//6
f 110//6 140//6 138//6
f 110//6 138//6 136//6
f 110//6 136//6 134//6
f 110//6 134//6 132//6
f 110//6 132//6 130//6
f 110//6 130//6 128//6
f 110//6 128//6 126//6
f 110//6 126//6 124//6
f 110//6 124//6 122//6
f 110//6 122//6 120//6
f 110//6 120//6 118//6
f 110//6 118//6 116//6
f 110//6 116//6 114//6
f 110//6 114//6 112//6
f 111//17 113//17 115//17
f 111//17 115//17 117//17
f 111//17 117//17 119//17
f 111//17 119//17 121//17
f 111//17 121//17 123//17
f 111//17 123//17 125//17
f 111//17 125//17 127//17
f 111//17 127//17 129//17
f 111//17 129//17 131//17
f 111//17 131//17 133//17
f 111//17 133//17 135//17
f 111//17 135//17 137//17
f 111//17 137//17 139//17
f 111//17 139//17 141//17
f 111//17 141//17 143//17
f 111//17 143//17 145//17
f 111//17 145//17 147//17
f 111//17 147//17 149//17
f 111//17 149//17 151//17
f 111//17 151//17 153//17
f 111//17 153//17 155//17
f 111//17 155//17 157//17
f 111//17 157//17 159//17
f 111//17 159//17 161//17
f 111//17 161//17 163//17
f 111//17 163//17 165//17
f 111//17 165//17 167//17
f 111//17 167//17 169//17
f 111//17 169//17 171//17
f 111//17 171//17 173//17
f 111//17 173//17 175//17
f 111//17 175//17 177//17
f 111//17 177//17 179//17
f 111//17 179//17 181//17
f 111//17 181//17 183//17
f 111//17 183//17 185//17
